<svg id="visual" viewBox="0 0 675 900" width="675" height="900" xmlns="http://www.w3.org/2000/svg" xmlns:xlink="http://www.w3.org/1999/xlink" version="1.1"><rect x="0" y="0" width="675" height="900" fill="#3d5151"></rect><g transform="translate(412.8690633038834 513.2133286210217)"><path d="M235.4 -327.5C269.4 -252 236.6 -144 213.7 -68.1C190.7 7.7 177.6 51.3 154.6 87.7C131.7 124.1 99 153.2 50.5 195.5C1.9 237.7 -62.5 293.2 -146.6 305C-230.7 316.8 -334.6 285 -376.8 215.7C-419 146.4 -399.6 39.7 -364.1 -47.3C-328.6 -134.3 -277.1 -201.6 -213.8 -271.9C-150.4 -342.3 -75.2 -415.6 12.7 -430.8C100.7 -446 201.4 -403 235.4 -327.5" fill="#fcfdfc"></path></g></svg>